<?xml version="1.0" encoding="utf-8"?>
<!-- Generator: Adobe Illustrator 24.0.0, SVG Export Plug-In . SVG Version: 6.00 Build 0)  -->
<svg version="1.1" id="Layer_1" xmlns="http://www.w3.org/2000/svg" xmlns:xlink="http://www.w3.org/1999/xlink" x="0px" y="0px"
	 viewBox="0 0 569.2 530.2" style="enable-background:new 0 0 569.2 530.2;" xml:space="preserve">
<style type="text/css">
	.st0{fill:#FFFFFF;}
	.st1{font-family:'ArialMT';}
	.st2{font-size:8px;}
	.st3{font-family:'Arial-BoldMT';}
	.st4{font-size:12px;}
	.st5{fill-rule:evenodd;clip-rule:evenodd;}
	.st6{stroke:#505050;stroke-width:0.7126;}
	.st7{stroke:#505050;stroke-width:0.5417;}
	.st8{stroke:#505050;stroke-width:0.539;}
	.st9{stroke:#505050;stroke-width:0.9133;}
	.st10{stroke:#505050;stroke-width:0.5096;}
	.st11{stroke:#505050;stroke-width:0.4786;}
	.st12{stroke:#505050;stroke-width:0.4759;}
	.st13{stroke:#505050;stroke-width:1.4987;}
	.st14{stroke:#505050;stroke-width:1.4705;}
	.st15{stroke:#505050;stroke-width:0.5198;}
	.st16{stroke:#505050;stroke-width:0.3112;}
	.st17{stroke:#505050;stroke-width:1.4026;}
	.st18{stroke:#505050;stroke-width:0.5861;}
	.st19{stroke:#505050;stroke-width:0.8379;}
	.st20{stroke:#505050;stroke-width:5.012430e-02;}
	.st21{stroke:#505050;stroke-width:0.9927;}
	.st22{stroke:#505050;stroke-width:1.2378;}
	.st23{stroke:#505050;stroke-width:1.2815;}
	.st24{stroke:#505050;stroke-width:0.6053;}
	.st25{stroke:#505050;stroke-width:0.4347;}
	.st26{stroke:#505050;stroke-width:0.9366;}
	.st27{stroke:#505050;stroke-width:0.4947;}
	.st28{stroke:#505050;stroke-width:1.3494;}
	.st29{stroke:#505050;stroke-width:0.3946;}
	.st30{stroke:#505050;stroke-width:1.1666;}
	.st31{stroke:#505050;stroke-width:0.9498;}
	.st32{stroke:#505050;stroke-width:0.8576;}
	.st33{stroke:#505050;stroke-width:0.7777;}
	.st34{stroke:#505050;stroke-width:0.204;}
	.st35{stroke:#505050;stroke-width:1.5964;}
	.st36{stroke:#505050;stroke-width:0.5942;}
	.st37{stroke:#505050;stroke-width:0.3417;}
	.st38{stroke:#505050;stroke-width:1.009;}
	.st39{stroke:#505050;stroke-width:0.9875;}
	.st40{stroke:#505050;stroke-width:1.4542;}
	.st41{stroke:#505050;stroke-width:1.0021;}
	.st42{stroke:#505050;stroke-width:0.7017;}
	.st43{stroke:#505050;stroke-width:0.1252;}
	.st44{stroke:#505050;stroke-width:0.6529;}
	.st45{stroke:#505050;stroke-width:0.5271;}
	.st46{stroke:#505050;stroke-width:6.113060e-02;}
	.st47{stroke:#505050;stroke-width:8.619610e-02;}
	.st48{stroke:#505050;stroke-width:0.7186;}
	.st49{stroke:#505050;stroke-width:0.6752;}
	.st50{stroke:#505050;stroke-width:1.3226;}
	.st51{stroke:#505050;stroke-width:0.3577;}
	.st52{stroke:#505050;stroke-width:1.5155;}
	.st53{stroke:#505050;stroke-width:0.2266;}
	.st54{stroke:#505050;stroke-width:0.7873;}
	.st55{stroke:#505050;stroke-width:1.5634;}
	.st56{stroke:#505050;stroke-width:0.349;}
	.st57{stroke:#505050;stroke-width:0.334;}
	.st58{stroke:#505050;stroke-width:1.1677;}
	.st59{stroke:#505050;stroke-width:1.2368;}
	.st60{stroke:#505050;stroke-width:0.9341;}
	.st61{stroke:#505050;stroke-width:0.6628;}
	.st62{stroke:#505050;stroke-width:0.5577;}
	.st63{stroke:#505050;stroke-width:0.827;}
	.st64{stroke:#505050;stroke-width:0.7992;}
	.st65{stroke:#505050;stroke-width:8.601240e-03;}
	.st66{stroke:#505050;stroke-width:0.9273;}
	.st67{stroke:#505050;stroke-width:0.984;}
	.st68{fill:#FFFFFF;stroke:#333333;}
	.st69{font-size:10.2033px;}
	.st70{clip-path:url(#SVGID_2_);}
	.st71{clip-path:url(#SVGID_4_);}
	.st72{clip-path:url(#SVGID_6_);}
	.st73{clip-path:url(#SVGID_8_);}
	.st74{clip-path:url(#SVGID_10_);}
	.st75{clip-path:url(#SVGID_12_);}
	.st76{clip-path:url(#SVGID_14_);}
	.st77{clip-path:url(#SVGID_16_);}
	.st78{clip-path:url(#SVGID_18_);}
	.st79{clip-path:url(#SVGID_20_);}
	.st80{clip-path:url(#SVGID_22_);}
	.st81{clip-path:url(#SVGID_24_);}
	.st82{clip-path:url(#SVGID_26_);}
	.st83{clip-path:url(#SVGID_28_);}
	.st84{clip-path:url(#SVGID_30_);}
	.st85{clip-path:url(#SVGID_32_);}
	.st86{clip-path:url(#SVGID_34_);}
	.st87{clip-path:url(#SVGID_36_);}
</style>
<rect class="st0" width="569.2" height="530.2"/>
<text transform="matrix(1 0 0 1 92.1489 506.5526)" class="st1 st2">Input Layer {0,1}</text>
<text transform="matrix(1 0 0 1 165.6312 506.5526)" class="st3 st2">Political Coordinates Layer</text>
<text transform="matrix(1 0 0 1 284.2642 506.5526)" class="st1 st2">Hidden Layer 1</text>
<text transform="matrix(1 0 0 1 377.9364 506.5526)" class="st1 st2">Hidden Layer 2</text>
<text transform="matrix(1 0 0 1 464.8639 506.5526)" class="st1 st2">Output Layer {0,1}</text>
<g>
	<text transform="matrix(1 0 0 1 405.3005 201.2996)" class="st1 st4">Voter will choose option A</text>
</g>
<g>
	<text transform="matrix(1 0 0 1 25.1807 75.2181)" class="st1 st4">Option A</text>
</g>
<g>
	<text transform="matrix(1 0 0 1 405.3004 300.6998)" class="st1 st4">Voter will choose option B</text>
</g>
<g>
	<path class="st5" d="M89.7,34v20.4c0,1.1,0.2,8.5-3.2,12.8c-1.1,1.4-2.4,2.3-3.8,2.7v5.7c1.5,0.4,2.8,1.4,3.8,2.7
		c3.4,4.3,3.2,11.6,3.2,12.8v20.4c0,6.3,1.8,10.8,5.5,13.5c3,2.3,6.6,2.7,8.4,2.8l-4-3.2c-5.4-1-8.6-8.9-8.6-14.8V84.5
		c0-3.9-1.6-7.5-4.3-9.6l-2.8-2.2l2.8-2.2c2.7-2.1,4.3-5.7,4.3-9.6V35.6c0-5.9,3.2-13.8,8.6-14.8l4-3.2c-1.9,0.1-5.4,0.6-8.4,2.8
		C91.5,23.2,89.7,27.8,89.7,34"/>
</g>
<g>
	<path class="st5" d="M377.4,68.6h-34.8c-1.9,0-14.5,0.2-21.8-3.2c-2.3-1.1-3.9-2.4-4.6-3.8h-9.8c-0.7,1.5-2.3,2.8-4.6,3.8
		c-7.3,3.4-19.9,3.2-21.8,3.2h-34.8c-10.8,0-18.5,1.8-23.1,5.5c-3.9,3-4.6,6.6-4.8,8.4l5.5-4c1.7-5.4,15.2-8.6,25.2-8.6h43
		c6.7,0,12.8-1.6,16.4-4.3l3.8-2.8l3.8,2.8c3.6,2.7,9.8,4.3,16.4,4.3h43.2c10.1,0,23.5,3.2,25.2,8.6l5.5,4c-0.2-1.9-1-5.4-4.8-8.4
		C395.8,70.4,388,68.6,377.4,68.6"/>
</g>
<g>
	<text transform="matrix(1 0 0 1 25.1807 252.2247)" class="st1 st4">Voter</text>
</g>
<g>
	<path class="st5" d="M89.7,199.7v25.8c0,1.4,0.2,10.7-3.2,16.2c-1.1,1.7-2.4,2.9-3.8,3.4v7.3c1.5,0.6,2.8,1.7,3.8,3.4
		c3.4,5.5,3.2,14.7,3.2,16.2v25.8c0,7.9,1.8,13.7,5.5,17.1c3,2.9,6.6,3.5,8.4,3.6l-4-4c-5.4-1.3-8.6-11.3-8.6-18.7v-32.1
		c0-4.9-1.6-9.5-4.3-12.1l-2.8-2.8l2.8-2.8c2.7-2.7,4.3-7.2,4.3-12.1v-32.1c0-7.4,3.2-17.4,8.6-18.7l4-4c-1.9,0.1-5.4,0.7-8.4,3.6
		C91.5,186,89.7,191.8,89.7,199.7"/>
</g>
<g>
	<text transform="matrix(1 0 0 1 25.1807 427.2315)" class="st1 st4">Option B</text>
</g>
<g>
	<path class="st5" d="M89.7,386v20.4c0,1.1,0.2,8.5-3.2,12.8c-1.1,1.4-2.4,2.3-3.8,2.7v5.7c1.5,0.4,2.8,1.4,3.8,2.7
		c3.4,4.3,3.2,11.6,3.2,12.8v20.4c0,6.3,1.8,10.8,5.5,13.5c3,2.3,6.6,2.7,8.4,2.8l-4-3.2c-5.4-1-8.6-8.9-8.6-14.8v-25.3
		c0-3.9-1.6-7.5-4.3-9.6l-2.8-2.2l2.8-2.2c2.7-2.1,4.3-5.7,4.3-9.6v-25.3c0-5.9,3.2-13.8,8.6-14.8l4-3.2c-1.9,0.1-5.4,0.6-8.4,2.8
		C91.5,375.2,89.7,379.8,89.7,386"/>
</g>
<g>
	<path marker-end="" class="st6" d="M123,34.3l94.1,156"/>
	<path marker-end="" class="st7" d="M123,73.3l94.1,117"/>
	<path marker-end="" class="st8" d="M123,112.3l94.1,78"/>
	<path marker-end="" class="st9" d="M123,190.3l94.1,39"/>
	<path marker-end="" class="st10" d="M123,190.3l94.1,78"/>
	<path marker-end="" class="st11" d="M123,229.3h94.1"/>
	<path marker-end="" class="st12" d="M123,229.3l94.1,39"/>
	<path marker-end="" class="st13" d="M123,268.3l94.1-39"/>
	<path marker-end="" class="st14" d="M123,268.3h94.1"/>
	<path marker-end="" class="st15" d="M123,307.3l94.1-78"/>
	<path marker-end="" class="st16" d="M123,307.3l94.1-39"/>
	<path marker-end="" class="st17" d="M123,385.3l94.1-78"/>
	<path marker-end="" class="st18" d="M123,385.3l94.1-39"/>
	<path marker-end="" class="st19" d="M123,424.3l94.1-117"/>
	<path marker-end="" class="st20" d="M123,424.3l94.1-78"/>
	<path marker-end="" class="st21" d="M123,463.3l94.1-156"/>
	<path marker-end="" class="st22" d="M123,463.3l94.1-117"/>
	<path marker-end="" class="st23" d="M217.1,151.3l94.1-19.5"/>
	<path marker-end="" class="st24" d="M217.1,151.3l94.1,19.5"/>
	<path marker-end="" class="st25" d="M217.1,151.3l94.1,58.5"/>
	<path marker-end="" class="st26" d="M217.1,190.3l94.1-58.5"/>
	<path marker-end="" class="st27" d="M217.1,190.3l94.1-19.5"/>
	<path marker-end="" class="st28" d="M217.1,190.3l94.1,19.5"/>
	<path marker-end="" class="st29" d="M217.1,229.3l94.1-97.5"/>
	<path marker-end="" class="st30" d="M217.1,229.3l94.1-58.5"/>
	<path marker-end="" class="st31" d="M217.1,229.3l94.1-19.5"/>
	<path marker-end="" class="st32" d="M217.1,229.3l94.1,58.5"/>
	<path marker-end="" class="st33" d="M217.1,229.3l94.1,97.5"/>
	<path marker-end="" class="st34" d="M217.1,229.3l94.1,136.5"/>
	<path marker-end="" class="st35" d="M217.1,268.3l94.1-136.5"/>
	<path marker-end="" class="st36" d="M217.1,268.3l94.1-97.5"/>
	<path marker-end="" class="st37" d="M217.1,268.3l94.1-58.5"/>
	<path marker-end="" class="st38" d="M217.1,268.3l94.1,19.5"/>
	<path marker-end="" class="st39" d="M217.1,268.3l94.1,58.5"/>
	<path marker-end="" class="st40" d="M217.1,268.3l94.1,97.5"/>
	<path marker-end="" class="st41" d="M311.2,131.8"/>
	<path marker-end="" class="st41" d="M217.1,307.3"/>
	<path marker-end="" class="st42" d="M217.1,307.3l94.1-19.5"/>
	<path marker-end="" class="st43" d="M217.1,307.3l94.1,19.5"/>
	<path marker-end="" class="st44" d="M217.1,307.3l94.1,58.5"/>
	<path marker-end="" class="st45" d="M217.1,346.3l94.1-58.5"/>
	<path marker-end="" class="st46" d="M217.1,346.3l94.1-19.5"/>
	<path marker-end="" class="st47" d="M217.1,346.3l94.1,19.5"/>
	<path marker-end="" class="st48" d="M311.2,287.8l94.1-19.5"/>
	<path marker-end="" class="st49" d="M311.2,326.8l94.1-58.5"/>
	<path marker-end="" class="st50" d="M311.2,365.8l94.1-97.5"/>
	<path marker-end="" class="st51" d="M123,34.3l94.1,117"/>
	<path marker-end="" class="st52" d="M123,73.3l94.1,78"/>
	<path marker-end="" class="st53" d="M123,112.3l94.1,39"/>
	<path marker-end="" class="st54" d="M217.1,151.3l94.1-58.5"/>
	<path marker-end="" class="st55" d="M217.1,190.3l94.1-97.5"/>
	<path marker-end="" class="st56" d="M217.1,229.3l94.1-136.5"/>
	<path marker-end="" class="st57" d="M217.1,268.3l94.1-175.5"/>
	<path marker-end="" class="st58" d="M311.2,92.8"/>
	<path marker-end="" class="st58" d="M217.1,307.3"/>
	<path marker-end="" class="st59" d="M311.2,92.8l94.1,136.5"/>
	<path marker-end="" class="st60" d="M311.2,131.8l94.1,97.5"/>
	<path marker-end="" class="st61" d="M311.2,170.8l94.1,58.5"/>
	<path marker-end="" class="st62" d="M311.2,209.8l94.1,19.5"/>
	<path marker-end="" class="st62" d="M405.3,229.3l94.1,19.5"/>
	<path marker-end="" class="st62" d="M405.3,268.3l94.1-19.5"/>
	<path marker-end="" class="st63" d="M217.1,229.3l94.1,175.5"/>
	<path marker-end="" class="st64" d="M217.1,268.3l94.1,136.5"/>
	<path marker-end="" class="st65" d="M217.1,307.3l94.1,97.5"/>
	<path marker-end="" class="st66" d="M217.1,346.3l94.1,58.5"/>
	<path marker-end="" class="st67" d="M311.2,404.8l94.1-136.5"/>
	<circle id="_x30__x5F_0" class="st68" cx="123" cy="34.3" r="11"/>
	<circle id="_x30__x5F_1" class="st68" cx="123" cy="73.3" r="11"/>
	<circle id="_x30__x5F_2" class="st68" cx="123" cy="112.3" r="11"/>
	<circle id="_x30__x5F_4" class="st68" cx="123" cy="190.3" r="11"/>
	<circle id="_x30__x5F_5" class="st68" cx="123" cy="229.3" r="11"/>
	<circle id="_x30__x5F_6" class="st68" cx="123" cy="268.3" r="11"/>
	<circle id="_x30__x5F_7" class="st68" cx="123" cy="307.3" r="11"/>
	<circle id="_x30__x5F_9" class="st68" cx="123" cy="385.3" r="11"/>
	<circle id="_x30__x5F_10" class="st68" cx="123" cy="424.3" r="11"/>
	<circle id="_x30__x5F_11" class="st68" cx="123" cy="463.3" r="11"/>
	<circle id="_x31__x5F_0" class="st68" cx="217.1" cy="151.3" r="11"/>
	<circle id="_x31__x5F_1" class="st68" cx="217.1" cy="190.3" r="11"/>
	<circle id="_x31__x5F_2" class="st68" cx="217.1" cy="229.3" r="11"/>
	<circle id="_x31__x5F_3" class="st68" cx="217.1" cy="268.3" r="11"/>
	<circle id="_x31__x5F_4" class="st68" cx="217.1" cy="307.3" r="11"/>
	<circle id="_x31__x5F_5" class="st68" cx="217.1" cy="346.3" r="11"/>
	<circle id="_x32__x5F_0" class="st68" cx="311.2" cy="92.8" r="11"/>
	<circle id="_x32__x5F_1" class="st68" cx="311.2" cy="131.8" r="11"/>
	<circle id="_x32__x5F_2" class="st68" cx="311.2" cy="170.8" r="11"/>
	<circle id="_x32__x5F_3" class="st68" cx="311.2" cy="209.8" r="11"/>
	<circle id="_x32__x5F_5" class="st68" cx="311.2" cy="287.8" r="11"/>
	<circle id="_x32__x5F_6" class="st68" cx="311.2" cy="326.8" r="11"/>
	<circle id="_x32__x5F_7" class="st68" cx="311.2" cy="365.8" r="11"/>
	<circle id="_x32__x5F_8" class="st68" cx="311.2" cy="404.8" r="11"/>
	<circle id="_x33__x5F_0" class="st68" cx="405.3" cy="229.3" r="11"/>
	<circle id="_x33__x5F_0_1_" class="st68" cx="499.4" cy="248.8" r="11"/>
	<circle id="_x33__x5F_1" class="st68" cx="405.3" cy="268.3" r="11"/>
</g>
<g>
	<text transform="matrix(1 0 0 1 119.8695 36.326)" class="st1 st69">1</text>
	<text transform="matrix(1 0 0 1 119.8695 76.1602)" class="st1 st69">2</text>
	<text transform="matrix(1 0 0 1 119.8695 115.3113)" class="st1 st69">3</text>
	<text transform="matrix(1 0 0 1 119.8695 193.0879)" class="st1 st69">1</text>
	<text transform="matrix(1 0 0 1 119.8695 232.9222)" class="st1 st69">2</text>
	<text transform="matrix(1 0 0 1 119.8695 272.0732)" class="st1 st69">3</text>
	<text transform="matrix(1 0 0 1 119.8695 311.1859)" class="st1 st69">4</text>
	<text transform="matrix(1 0 0 1 119.8695 388.7532)" class="st1 st69">1</text>
	<text transform="matrix(1 0 0 1 119.8695 428.5874)" class="st1 st69">2</text>
	<text transform="matrix(1 0 0 1 119.8695 467.7385)" class="st1 st69">3</text>
</g>
<g>
	<g>
		<g>
			<g>
				<g>
					<defs>
						<rect id="SVGID_1_" x="211.7" y="143.7" width="11" height="14"/>
					</defs>
					<clipPath id="SVGID_2_">
						<use xlink:href="#SVGID_1_"  style="overflow:visible;"/>
					</clipPath>
					<path class="st70" d="M212.8,152.6c0.5-0.6,0.8-0.8,1.2-1.1c0,0,0.6-0.5,1-0.9c0.9-0.9,1.2-1.4,1.2-1.4c0-0.1-0.1-0.1-0.1-0.1
						c-0.1,0-0.1,0-0.1,0.1c-0.3,0.5-0.5,0.6-0.7,0.6s-0.4-0.1-0.5-0.3c-0.2-0.2-0.4-0.4-0.7-0.4c-0.7,0-1.2,0.9-1.2,1.1
						c0,0.1,0,0.1,0.1,0.1s0.1-0.1,0.1-0.1c0.2-0.5,0.8-0.5,0.8-0.5c0.2,0,0.4,0.1,0.6,0.1c0.4,0.1,0.5,0.1,0.8,0.1
						c-0.4,0.4-1.2,1.1-1.4,1.3L213,152c-0.7,0.7-1,1.2-1,1.3s0.1,0.1,0.1,0.1c0.1,0,0.1,0,0.2-0.1c0.2-0.3,0.5-0.6,0.8-0.6
						c0.2,0,0.3,0.1,0.6,0.4c0.2,0.2,0.3,0.4,0.6,0.4c1,0,1.6-1.3,1.6-1.5c0-0.1,0-0.1-0.1-0.1s-0.1,0.1-0.1,0.1
						c-0.2,0.6-0.9,0.8-1.2,0.8c-0.2,0-0.4-0.1-0.6-0.1c-0.3-0.1-0.5-0.2-0.7-0.2C213.1,152.5,212.9,152.5,212.8,152.6"/>
				</g>
			</g>
		</g>
		<g>
			<g>
				<g>
					<defs>
						<rect id="SVGID_3_" x="211.7" y="143.7" width="11" height="14"/>
					</defs>
					<clipPath id="SVGID_4_">
						<use xlink:href="#SVGID_3_"  style="overflow:visible;"/>
					</clipPath>
					<path class="st71" d="M219,147.4l1.5-2.3l0.3,2.3H219z M218,148.4c-0.2,0.4-0.5,0.6-0.9,0.6c-0.1,0-0.2,0-0.2,0.1
						s0.1,0.1,0.1,0.1c0.2,0,0.4,0,0.6,0c0.2,0,0.5,0,0.7,0c0,0,0.1,0,0.1-0.2c0-0.1-0.1-0.1-0.1-0.1c-0.1,0-0.3,0-0.3-0.2
						c0-0.1,0.1-0.2,0.1-0.3l0.6-0.9h2l0.2,1.2c0,0.1-0.1,0.2-0.5,0.2c-0.1,0-0.2,0-0.2,0.2c0,0,0,0.1,0.1,0.1c0.2,0,0.7,0,0.9,0
						c0.1,0,0.3,0,0.4,0c0.1,0,0.3,0,0.4,0c0.1,0,0.1-0.1,0.1-0.1c0-0.1-0.1-0.1-0.2-0.1c-0.4,0-0.4-0.1-0.4-0.2l-0.6-4.3
						c0-0.1,0-0.2-0.2-0.2c-0.1,0-0.2,0.1-0.2,0.2L218,148.4z"/>
				</g>
			</g>
		</g>
		<g>
			<g>
				<g>
					<defs>
						<rect id="SVGID_5_" x="211.7" y="143.7" width="11" height="14"/>
					</defs>
					<clipPath id="SVGID_6_">
						<use xlink:href="#SVGID_5_"  style="overflow:visible;"/>
					</clipPath>
					<path class="st72" d="M216.5,156.9c0,0.1,0,0.1,0,0.1c0,0.2,0.1,0.2,0.2,0.2c0.3,0,0.3-0.2,0.3-0.4c0,0,0.2-0.6,0.3-1.3
						c0.2,0.1,0.5,0.2,0.8,0.2c0.6,0,1-0.5,1-0.5c0.1,0.5,0.6,0.5,0.7,0.5c0.3,0,0.4-0.2,0.6-0.4c0.2-0.3,0.2-0.7,0.2-0.7
						c0-0.1-0.1-0.1-0.1-0.1c-0.1,0-0.1,0-0.2,0.2c-0.1,0.3-0.2,0.8-0.5,0.8c-0.2,0-0.2-0.2-0.2-0.3s0.1-0.4,0.1-0.6
						c0.1-0.2,0.1-0.5,0.2-0.6l0.2-0.6c0-0.2,0.1-0.5,0.1-0.5c0-0.1-0.1-0.2-0.2-0.2c-0.1,0-0.2,0-0.3,0.2c0,0-0.1,0.3-0.1,0.4
						l-0.1,0.6l-0.2,0.9c0,0.2,0,0.2-0.1,0.3c-0.2,0.3-0.5,0.6-0.9,0.6c-0.6,0-0.6-0.5-0.6-0.6c0-0.2,0-0.3,0.1-0.7
						c0.1-0.3,0.1-0.4,0.2-0.6l0.1-0.4c0-0.1,0.1-0.4,0.1-0.4c0-0.1-0.1-0.2-0.2-0.2c-0.3,0-0.3,0.2-0.3,0.3L216.5,156.9"/>
				</g>
			</g>
		</g>
	</g>
	<g>
		<g>
			<g>
				<g>
					<defs>
						<rect id="SVGID_7_" x="211.7" y="183.2" width="11" height="14"/>
					</defs>
					<clipPath id="SVGID_8_">
						<use xlink:href="#SVGID_7_"  style="overflow:visible;"/>
					</clipPath>
					<path class="st73" d="M212.8,192.1c0.5-0.6,0.8-0.8,1.2-1.1c0,0,0.6-0.5,1-0.9c0.9-0.9,1.2-1.4,1.2-1.4c0-0.1-0.1-0.1-0.1-0.1
						c-0.1,0-0.1,0-0.1,0.1c-0.3,0.5-0.5,0.6-0.7,0.6s-0.4-0.1-0.5-0.3c-0.2-0.2-0.4-0.4-0.7-0.4c-0.7,0-1.2,0.9-1.2,1.1
						c0,0.1,0,0.1,0.1,0.1s0.1-0.1,0.1-0.1c0.2-0.5,0.8-0.5,0.8-0.5c0.2,0,0.4,0.1,0.6,0.1c0.4,0.1,0.5,0.1,0.8,0.1
						c-0.4,0.4-1.2,1.1-1.4,1.3l-0.9,0.8c-0.7,0.7-1,1.2-1,1.3s0.1,0.1,0.1,0.1c0.1,0,0.1,0,0.2-0.1c0.2-0.3,0.5-0.6,0.8-0.6
						c0.2,0,0.3,0.1,0.6,0.4c0.2,0.2,0.3,0.4,0.6,0.4c1,0,1.6-1.3,1.6-1.5c0-0.1,0-0.1-0.1-0.1s-0.1,0.1-0.1,0.1
						c-0.2,0.6-0.9,0.8-1.2,0.8c-0.2,0-0.4-0.1-0.6-0.1c-0.3-0.1-0.5-0.2-0.7-0.2C213.1,192,212.9,192,212.8,192.1"/>
				</g>
			</g>
		</g>
		<g>
			<g>
				<g>
					<defs>
						<rect id="SVGID_9_" x="211.7" y="183.2" width="11" height="14"/>
					</defs>
					<clipPath id="SVGID_10_">
						<use xlink:href="#SVGID_9_"  style="overflow:visible;"/>
					</clipPath>
					<path class="st74" d="M219,186.9l1.5-2.3l0.3,2.3H219z M218,187.9c-0.2,0.4-0.5,0.6-0.9,0.6c-0.1,0-0.2,0-0.2,0.1
						s0.1,0.1,0.1,0.1c0.2,0,0.4,0,0.6,0c0.2,0,0.5,0,0.7,0c0,0,0.1,0,0.1-0.2c0-0.1-0.1-0.1-0.1-0.1c-0.1,0-0.3,0-0.3-0.2
						c0-0.1,0.1-0.2,0.1-0.3l0.6-0.9h2l0.2,1.2c0,0.1-0.1,0.2-0.5,0.2c-0.1,0-0.2,0-0.2,0.2c0,0,0,0.1,0.1,0.1c0.2,0,0.7,0,0.9,0
						c0.1,0,0.3,0,0.4,0c0.1,0,0.3,0,0.4,0c0.1,0,0.1-0.1,0.1-0.1c0-0.1-0.1-0.1-0.2-0.1c-0.4,0-0.4-0.1-0.4-0.2l-0.6-4.3
						c0-0.1,0-0.2-0.2-0.2c-0.1,0-0.2,0.1-0.2,0.2L218,187.9z"/>
				</g>
			</g>
		</g>
		<g>
			<g>
				<g>
					<defs>
						<rect id="SVGID_11_" x="211.7" y="183.2" width="11" height="14"/>
					</defs>
					<clipPath id="SVGID_12_">
						<use xlink:href="#SVGID_11_"  style="overflow:visible;"/>
					</clipPath>
					<path class="st75" d="M216.5,196.4c0,0.1,0,0.1,0,0.1c0,0.2,0.1,0.2,0.2,0.2c0.3,0,0.3-0.2,0.3-0.4c0,0,0.2-0.6,0.3-1.3
						c0.2,0.1,0.5,0.2,0.8,0.2c0.6,0,1-0.5,1-0.5c0.1,0.5,0.6,0.5,0.7,0.5c0.3,0,0.4-0.2,0.6-0.4c0.2-0.3,0.2-0.7,0.2-0.7
						c0-0.1-0.1-0.1-0.1-0.1c-0.1,0-0.1,0-0.2,0.2c-0.1,0.3-0.2,0.8-0.5,0.8c-0.2,0-0.2-0.2-0.2-0.3s0.1-0.4,0.1-0.6
						c0.1-0.2,0.1-0.5,0.2-0.6l0.2-0.6c0-0.2,0.1-0.5,0.1-0.5c0-0.1-0.1-0.2-0.2-0.2c-0.1,0-0.2,0-0.3,0.2c0,0-0.1,0.3-0.1,0.4
						l-0.1,0.6l-0.2,0.9c0,0.2,0,0.2-0.1,0.3c-0.2,0.3-0.5,0.6-0.9,0.6c-0.6,0-0.6-0.5-0.6-0.6c0-0.2,0-0.3,0.1-0.7
						c0.1-0.3,0.1-0.4,0.2-0.6l0.1-0.4c0-0.1,0.1-0.4,0.1-0.4c0-0.1-0.1-0.2-0.2-0.2c-0.3,0-0.3,0.2-0.3,0.3L216.5,196.4"/>
				</g>
			</g>
		</g>
	</g>
	<g>
		<g>
			<g>
				<g>
					<defs>
						<rect id="SVGID_13_" x="211.6" y="300.7" width="11" height="14"/>
					</defs>
					<clipPath id="SVGID_14_">
						<use xlink:href="#SVGID_13_"  style="overflow:visible;"/>
					</clipPath>
					<path class="st76" d="M212.6,309.6c0.5-0.6,0.8-0.8,1.2-1.1c0,0,0.6-0.5,1-0.9c0.9-0.9,1.2-1.4,1.2-1.4c0-0.1-0.1-0.1-0.1-0.1
						c-0.1,0-0.1,0-0.1,0.1c-0.3,0.5-0.5,0.6-0.7,0.6s-0.4-0.1-0.5-0.3c-0.2-0.2-0.4-0.4-0.7-0.4c-0.7,0-1.2,0.9-1.2,1.1
						c0,0,0,0.1,0.1,0.1s0.1,0,0.1-0.1c0.2-0.5,0.8-0.5,0.8-0.5c0.2,0,0.4,0.1,0.6,0.1c0.4,0.1,0.5,0.1,0.8,0.1
						c-0.4,0.4-1.2,1.1-1.4,1.3l-0.9,0.8c-0.7,0.7-1,1.2-1,1.3c0,0.1,0.1,0.1,0.1,0.1c0.1,0,0.1,0,0.2-0.1c0.2-0.3,0.5-0.6,0.8-0.6
						c0.2,0,0.3,0.1,0.6,0.4c0.2,0.2,0.3,0.4,0.6,0.4c1,0,1.6-1.3,1.6-1.5c0,0,0-0.1-0.1-0.1s-0.1,0.1-0.1,0.1
						c-0.2,0.6-0.9,0.8-1.2,0.8c-0.2,0-0.4-0.1-0.6-0.1c-0.3-0.1-0.5-0.2-0.7-0.2C212.8,309.5,212.6,309.5,212.6,309.6"/>
				</g>
			</g>
		</g>
		<g>
			<g>
				<g>
					<defs>
						<rect id="SVGID_15_" x="211.6" y="300.7" width="11" height="14"/>
					</defs>
					<clipPath id="SVGID_16_">
						<use xlink:href="#SVGID_15_"  style="overflow:visible;"/>
					</clipPath>
					<path class="st77" d="M218.5,306c-0.2,0-0.2,0-0.2-0.1c0,0,0,0,0-0.1l0.5-1.9h1.5c0.7,0,0.9,0.4,0.9,0.8c0,0.7-0.7,1.3-1.6,1.3
						L218.5,306 M218.8,303.7l0.4-1.7c0.1-0.2,0.1-0.2,0.4-0.2h1.1c0.7,0,0.9,0.5,0.9,0.7c0,0.6-0.6,1.2-1.6,1.2H218.8z
						 M217.7,305.7c-0.1,0.2-0.1,0.3-0.6,0.3c-0.1,0-0.2,0-0.2,0.1s0.1,0.1,0.2,0.1h2.7c1.2,0,2.1-0.8,2.1-1.5c0-0.5-0.5-0.9-1.2-1
						c0.9-0.2,1.6-0.7,1.6-1.3c0-0.5-0.5-1-1.5-1h-2.6c-0.1,0-0.2,0-0.2,0.2c0,0.1,0.1,0.1,0.2,0.1c0,0,0.1,0,0.3,0
						c0.1,0,0.2,0,0.2,0.1c0,0,0,0,0,0.2L217.7,305.7z"/>
				</g>
			</g>
		</g>
		<g>
			<g>
				<g>
					<defs>
						<rect id="SVGID_17_" x="211.6" y="300.7" width="11" height="14"/>
					</defs>
					<clipPath id="SVGID_18_">
						<use xlink:href="#SVGID_17_"  style="overflow:visible;"/>
					</clipPath>
					<path class="st78" d="M216.2,313.9c0,0.1,0,0.1,0,0.1c0,0.2,0.1,0.2,0.2,0.2c0.3,0,0.3-0.2,0.3-0.4c0,0,0.2-0.6,0.3-1.3
						c0.2,0.1,0.5,0.2,0.8,0.2c0.6,0,1-0.5,1-0.5c0.1,0.5,0.6,0.5,0.7,0.5c0.3,0,0.4-0.2,0.6-0.4c0.2-0.3,0.2-0.7,0.2-0.7
						c0-0.1-0.1-0.1-0.1-0.1c-0.1,0-0.1,0-0.2,0.2c-0.1,0.3-0.2,0.8-0.5,0.8c-0.2,0-0.2-0.2-0.2-0.3c0-0.1,0.1-0.4,0.1-0.6
						c0.1-0.2,0.1-0.5,0.2-0.6l0.2-0.6c0-0.2,0.1-0.5,0.1-0.5c0-0.1-0.1-0.2-0.2-0.2c-0.1,0-0.2,0-0.3,0.2c0,0-0.1,0.3-0.1,0.4
						l-0.1,0.6l-0.2,0.9c0,0.2,0,0.2-0.1,0.3c-0.2,0.3-0.5,0.6-0.9,0.6c-0.6,0-0.6-0.5-0.6-0.6c0-0.2,0-0.3,0.1-0.7
						c0.1-0.3,0.1-0.4,0.2-0.6l0.1-0.4c0-0.1,0.1-0.4,0.1-0.4c0-0.1-0.1-0.2-0.2-0.2c-0.3,0-0.3,0.2-0.3,0.3L216.2,313.9"/>
				</g>
			</g>
		</g>
	</g>
	<g>
		<g>
			<g>
				<g>
					<defs>
						<rect id="SVGID_19_" x="211.6" y="339.8" width="11" height="14"/>
					</defs>
					<clipPath id="SVGID_20_">
						<use xlink:href="#SVGID_19_"  style="overflow:visible;"/>
					</clipPath>
					<path class="st79" d="M212.6,348.7c0.5-0.6,0.8-0.8,1.2-1.1c0,0,0.6-0.5,1-0.9c0.9-0.9,1.2-1.4,1.2-1.4c0-0.1-0.1-0.1-0.1-0.1
						c-0.1,0-0.1,0-0.1,0.1c-0.3,0.5-0.5,0.6-0.7,0.6s-0.4-0.1-0.5-0.3c-0.2-0.2-0.4-0.4-0.7-0.4c-0.7,0-1.2,0.9-1.2,1.1
						c0,0,0,0.1,0.1,0.1s0.1,0,0.1-0.1c0.2-0.5,0.8-0.5,0.8-0.5c0.2,0,0.4,0.1,0.6,0.1c0.4,0.1,0.5,0.1,0.8,0.1
						c-0.4,0.4-1.2,1.1-1.4,1.3l-0.9,0.8c-0.7,0.7-1,1.2-1,1.3c0,0.1,0.1,0.1,0.1,0.1c0.1,0,0.1,0,0.2-0.1c0.2-0.3,0.5-0.6,0.8-0.6
						c0.2,0,0.3,0.1,0.6,0.4c0.2,0.2,0.3,0.4,0.6,0.4c1,0,1.6-1.3,1.6-1.5c0,0,0-0.1-0.1-0.1s-0.1,0.1-0.1,0.1
						c-0.2,0.6-0.9,0.8-1.2,0.8c-0.2,0-0.4-0.1-0.6-0.1c-0.3-0.1-0.5-0.2-0.7-0.2C212.8,348.6,212.6,348.6,212.6,348.7"/>
				</g>
			</g>
		</g>
		<g>
			<g>
				<g>
					<defs>
						<rect id="SVGID_21_" x="211.6" y="339.8" width="11" height="14"/>
					</defs>
					<clipPath id="SVGID_22_">
						<use xlink:href="#SVGID_21_"  style="overflow:visible;"/>
					</clipPath>
					<path class="st80" d="M218.5,345.1c-0.2,0-0.2,0-0.2-0.1c0,0,0,0,0-0.1l0.5-1.9h1.5c0.7,0,0.9,0.4,0.9,0.8
						c0,0.7-0.7,1.3-1.6,1.3L218.5,345.1 M218.8,342.8l0.4-1.7c0.1-0.2,0.1-0.2,0.4-0.2h1.1c0.7,0,0.9,0.5,0.9,0.7
						c0,0.6-0.6,1.2-1.6,1.2H218.8z M217.7,344.8c-0.1,0.2-0.1,0.3-0.6,0.3c-0.1,0-0.2,0-0.2,0.1s0.1,0.1,0.2,0.1h2.7
						c1.2,0,2.1-0.8,2.1-1.5c0-0.5-0.5-0.9-1.2-1c0.9-0.2,1.6-0.7,1.6-1.3c0-0.5-0.5-1-1.5-1h-2.6c-0.1,0-0.2,0-0.2,0.2
						c0,0.1,0.1,0.1,0.2,0.1c0,0,0.1,0,0.3,0c0.1,0,0.2,0,0.2,0.1c0,0,0,0,0,0.2L217.7,344.8z"/>
				</g>
			</g>
		</g>
		<g>
			<g>
				<g>
					<defs>
						<rect id="SVGID_23_" x="211.6" y="339.8" width="11" height="14"/>
					</defs>
					<clipPath id="SVGID_24_">
						<use xlink:href="#SVGID_23_"  style="overflow:visible;"/>
					</clipPath>
					<path class="st81" d="M216.2,353c0,0.1,0,0.1,0,0.1c0,0.2,0.1,0.2,0.2,0.2c0.3,0,0.3-0.2,0.3-0.4c0,0,0.2-0.6,0.3-1.3
						c0.2,0.1,0.5,0.2,0.8,0.2c0.6,0,1-0.5,1-0.5c0.1,0.5,0.6,0.5,0.7,0.5c0.3,0,0.4-0.2,0.6-0.4c0.2-0.3,0.2-0.7,0.2-0.7
						c0-0.1-0.1-0.1-0.1-0.1c-0.1,0-0.1,0-0.2,0.2c-0.1,0.3-0.2,0.8-0.5,0.8c-0.2,0-0.2-0.2-0.2-0.3c0-0.1,0.1-0.4,0.1-0.6
						c0.1-0.2,0.1-0.5,0.2-0.6l0.2-0.6c0-0.2,0.1-0.5,0.1-0.5c0-0.1-0.1-0.2-0.2-0.2c-0.1,0-0.2,0-0.3,0.2c0,0-0.1,0.3-0.1,0.4
						l-0.1,0.6l-0.2,0.9c0,0.2,0,0.2-0.1,0.3c-0.2,0.3-0.5,0.6-0.9,0.6c-0.6,0-0.6-0.5-0.6-0.6c0-0.2,0-0.3,0.1-0.7
						c0.1-0.3,0.1-0.4,0.2-0.6l0.1-0.4c0-0.1,0.1-0.4,0.1-0.4c0-0.1-0.1-0.2-0.2-0.2c-0.3,0-0.3,0.2-0.3,0.3L216.2,353"/>
				</g>
			</g>
		</g>
	</g>
	<g>
		<g>
			<g>
				<g>
					<defs>
						<rect id="SVGID_25_" x="212.6" y="226.9" width="9" height="7"/>
					</defs>
					<clipPath id="SVGID_26_">
						<use xlink:href="#SVGID_25_"  style="overflow:visible;"/>
					</clipPath>
					<path class="st82" d="M216,228.5c0.1-0.3,0.3-1.2,1-1.2c0.1,0,0.3,0,0.5,0.1c-0.3,0.1-0.5,0.3-0.5,0.5s0.1,0.3,0.4,0.3
						c0.2,0,0.5-0.2,0.5-0.6c0-0.5-0.6-0.7-0.9-0.7c-0.6,0-0.9,0.5-1,0.8c-0.2-0.7-0.8-0.8-1.1-0.8c-1,0-1.6,1.3-1.6,1.5
						c0,0.1,0.1,0.1,0.1,0.1c0.1,0,0.1,0,0.1-0.1c0.3-1.1,1-1.3,1.3-1.3c0.2,0,0.5,0.1,0.5,0.7c0,0.3-0.2,1-0.5,2.4
						c-0.2,0.6-0.5,1-0.9,1c-0.1,0-0.3,0-0.5-0.1c0.2,0,0.5-0.3,0.5-0.5c0-0.3-0.2-0.3-0.4-0.3c-0.3,0-0.5,0.3-0.5,0.6
						c0,0.5,0.5,0.7,0.9,0.7c0.7,0,1-0.7,1-0.8c0.1,0.4,0.5,0.8,1.1,0.8c1,0,1.6-1.3,1.6-1.5c0-0.1-0.1-0.1-0.1-0.1
						c-0.1,0-0.1,0-0.1,0.1c-0.3,1.1-1,1.3-1.3,1.3c-0.4,0-0.5-0.3-0.5-0.7c0-0.2,0.1-0.4,0.2-0.9L216,228.5"/>
				</g>
			</g>
		</g>
		<g>
			<g>
				<g>
					<defs>
						<rect id="SVGID_27_" x="212.6" y="226.9" width="9" height="7"/>
					</defs>
					<clipPath id="SVGID_28_">
						<use xlink:href="#SVGID_27_"  style="overflow:visible;"/>
					</clipPath>
					<path class="st83" d="M219.3,232.2c0,0.1-0.1,0.2-0.1,0.3c0,0.3,0.3,0.6,0.7,0.6c0.7,0,1-1,1-1.1s-0.1-0.1-0.1-0.1
						c-0.1,0-0.1,0-0.1,0.1c-0.2,0.6-0.5,0.8-0.7,0.8c-0.1,0-0.2-0.1-0.2-0.2c0-0.2,0-0.3,0.1-0.4c0.1-0.2,0.1-0.4,0.2-0.6
						c0.1-0.2,0.3-0.8,0.3-0.9c0-0.1,0-0.2,0-0.2c0-0.3-0.3-0.6-0.7-0.6c-0.7,0-1,1-1,1.1s0.1,0.1,0.1,0.1c0.1,0,0.1,0,0.1-0.1
						c0.2-0.6,0.5-0.9,0.8-0.9c0.1,0,0.2,0.1,0.2,0.2c0,0.2,0,0.3-0.2,0.7L219.3,232.2 M220.7,228.6c0-0.1-0.1-0.3-0.3-0.3
						s-0.4,0.2-0.4,0.4c0,0.1,0.1,0.3,0.3,0.3S220.7,228.8,220.7,228.6z"/>
				</g>
			</g>
		</g>
	</g>
	<g>
		<g>
			<g>
				<g>
					<defs>
						<rect id="SVGID_29_" x="212.6" y="265.3" width="9" height="7"/>
					</defs>
					<clipPath id="SVGID_30_">
						<use xlink:href="#SVGID_29_"  style="overflow:visible;"/>
					</clipPath>
					<path class="st84" d="M216,266.9c0.1-0.3,0.3-1.2,1-1.2c0.1,0,0.3,0,0.5,0.1c-0.3,0-0.5,0.3-0.5,0.5s0.1,0.3,0.4,0.3
						c0.2,0,0.5-0.2,0.5-0.6c0-0.5-0.6-0.7-0.9-0.7c-0.6,0-0.9,0.5-1,0.8c-0.2-0.7-0.8-0.8-1.1-0.8c-1,0-1.6,1.3-1.6,1.5
						c0,0.1,0.1,0.1,0.1,0.1c0.1,0,0.1,0,0.1-0.1c0.3-1.1,1-1.3,1.3-1.3c0.2,0,0.5,0.1,0.5,0.7c0,0.3-0.2,1-0.5,2.4
						c-0.2,0.6-0.5,1-0.9,1c-0.1,0-0.3,0-0.5-0.1c0.2,0,0.5-0.3,0.5-0.5c0-0.3-0.2-0.3-0.4-0.3c-0.3,0-0.5,0.3-0.5,0.6
						c0,0.5,0.5,0.7,0.9,0.7c0.7,0,1-0.7,1-0.8c0.1,0.4,0.5,0.8,1.1,0.8c1,0,1.6-1.3,1.6-1.5c0-0.1-0.1-0.1-0.1-0.1
						c-0.1,0-0.1,0-0.1,0.1c-0.3,1.1-1,1.3-1.3,1.3c-0.4,0-0.5-0.3-0.5-0.7c0-0.2,0.1-0.4,0.2-0.9L216,266.9"/>
				</g>
			</g>
		</g>
		<g>
			<g>
				<g>
					<defs>
						<rect id="SVGID_31_" x="212.6" y="265.3" width="9" height="7"/>
					</defs>
					<clipPath id="SVGID_32_">
						<use xlink:href="#SVGID_31_"  style="overflow:visible;"/>
					</clipPath>
					<path class="st85" d="M219.3,270.6c0,0.1-0.1,0.2-0.1,0.3c0,0.3,0.3,0.6,0.7,0.6c0.7,0,1-1,1-1.1s-0.1-0.1-0.1-0.1
						c-0.1,0-0.1,0-0.1,0.1c-0.2,0.6-0.5,0.9-0.7,0.9c-0.1,0-0.2-0.1-0.2-0.2c0-0.2,0-0.3,0.1-0.4c0.1-0.2,0.1-0.4,0.2-0.6
						c0.1-0.2,0.3-0.8,0.3-0.9s0-0.2,0-0.2c0-0.3-0.3-0.6-0.7-0.6c-0.7,0-1,1-1,1.1s0.1,0.1,0.1,0.1c0.1,0,0.1,0,0.1-0.1
						c0.2-0.6,0.5-0.9,0.8-0.9c0.1,0,0.2,0.1,0.2,0.2c0,0.2,0,0.3-0.2,0.7L219.3,270.6 M220.7,267c0-0.1-0.1-0.3-0.3-0.3
						s-0.4,0.2-0.4,0.4c0,0.1,0.1,0.3,0.3,0.3S220.7,267.2,220.7,267z"/>
				</g>
			</g>
		</g>
	</g>
</g>
<g>
	<defs>
		<rect id="SVGID_33_" x="261.3" y="21.7" width="100" height="33"/>
	</defs>
	<clipPath id="SVGID_34_">
		<use xlink:href="#SVGID_33_"  style="overflow:visible;"/>
	</clipPath>
	<path class="st86" d="M269.7,34.5h2.1c0.5,0,0.7,0,0.7-0.5c0-0.3-0.2-0.3-0.7-0.3h-2.1l0.5-2.8c0.1-0.5,0.4-2.3,0.6-2.6
		c0.2-0.5,0.6-0.8,1.2-0.8c0.1,0,0.7,0,1.2,0.4c-1.1,0.1-1.3,1-1.3,1.3c0,0.6,0.4,0.9,0.9,0.9c0.6,0,1.4-0.5,1.4-1.5
		c0-1.1-1.1-1.7-2.2-1.7c-0.8,0-2.4,0.4-3.2,2.9c-0.2,0.5-0.2,0.8-0.8,3.9h-1.7c-0.5,0-0.7,0-0.7,0.5c0,0.3,0.2,0.3,0.7,0.3h1.6
		l-1.9,9.8c-0.4,2.4-0.9,4.7-2.2,4.7c-0.1,0-0.7,0-1.2-0.4c1.1-0.1,1.4-1,1.4-1.3c0-0.6-0.4-0.9-0.9-0.9c-0.6,0-1.4,0.5-1.4,1.5
		c0,1.1,1.1,1.7,2.1,1.7c1.4,0,2.4-1.5,2.8-2.4c0.8-1.6,1.4-4.6,1.4-4.8L269.7,34.5"/>
	<path class="st86" d="M290,52.8c0-0.1,0-0.1-0.1-0.2c-1.1-1.2-2.8-3.2-3.9-7.3c-0.6-2.3-0.8-4.8-0.8-7.2c0-6.6,1.6-11.1,4.6-14.4
		c0.2-0.2,0.2-0.3,0.2-0.3c0-0.2-0.2-0.2-0.3-0.2c-0.4,0-1.7,1.5-2,1.9c-2.5,3-4.2,7.5-4.2,13.1c0,3.5,0.6,8.5,3.9,12.8
		c0.2,0.3,1.9,2.2,2.3,2.2C289.8,53.1,290,53.1,290,52.8"/>
	<path class="st86" d="M299.4,36.9c0.1-0.6,0.7-2.9,2.5-2.9c0.1,0,0.7,0,1.2,0.3c-0.7,0.1-1.2,0.7-1.2,1.3c0,0.4,0.3,0.9,0.9,0.9
		c0.5,0,1.3-0.4,1.3-1.4c0-1.3-1.5-1.6-2.3-1.6c-1.4,0-2.3,1.3-2.6,1.9c-0.6-1.6-2-1.9-2.7-1.9c-2.6,0-4,3.2-4,3.8
		c0,0.2,0.2,0.2,0.3,0.2c0.2,0,0.3,0,0.3-0.3c0.8-2.6,2.5-3.3,3.3-3.3c0.5,0,1.3,0.2,1.3,1.7c0,0.8-0.4,2.4-1.3,5.9
		c-0.4,1.5-1.3,2.6-2.4,2.6c-0.2,0-0.7,0-1.2-0.3c0.6-0.1,1.2-0.6,1.2-1.3c0-0.7-0.5-0.9-0.9-0.9c-0.7,0-1.4,0.6-1.4,1.4
		c0,1.1,1.2,1.6,2.3,1.6c1.6,0,2.5-1.7,2.6-1.9c0.3,0.9,1.2,1.9,2.7,1.9c2.6,0,4-3.2,4-3.8c0-0.2-0.2-0.2-0.3-0.2
		c-0.2,0-0.3,0.1-0.3,0.3c-0.8,2.7-2.5,3.3-3.3,3.3c-1,0-1.4-0.8-1.4-1.6c0-0.5,0.1-1.1,0.4-2.2L299.4,36.9"/>
	<path class="st86" d="M307.4,46.1c-0.1,0.2-0.2,0.4-0.2,0.7c0,0.8,0.7,1.5,1.7,1.5c1.7,0,2.5-2.4,2.5-2.7c0-0.2-0.2-0.2-0.3-0.2
		c-0.2,0-0.3,0.1-0.3,0.3c-0.4,1.4-1.2,2.1-1.8,2.1c-0.3,0-0.4-0.2-0.4-0.6c0-0.4,0.1-0.7,0.3-1.1c0.2-0.5,0.4-0.9,0.6-1.4
		c0.2-0.4,0.8-2,0.9-2.2c0.1-0.2,0.1-0.4,0.1-0.6c0-0.8-0.7-1.5-1.7-1.5c-1.7,0-2.5,2.4-2.5,2.7c0,0.2,0.2,0.2,0.3,0.2
		c0.2,0,0.3-0.1,0.3-0.3c0.5-1.5,1.2-2.1,1.9-2.1c0.3,0,0.4,0.1,0.4,0.6c0,0.4-0.1,0.7-0.5,1.7L307.4,46.1 M310.9,37.2
		c0-0.3-0.2-0.7-0.7-0.7c-0.5,0-1,0.5-1,1c0,0.3,0.2,0.7,0.7,0.7C310.5,38.2,310.9,37.7,310.9,37.2z"/>
	<path class="st86" d="M318.7,44.4c0-1.6-0.6-2.6-1.6-2.6c-0.8,0-1.3,0.6-1.3,1.3c0,0.7,0.5,1.3,1.3,1.3c0.3,0,0.6-0.1,0.9-0.3
		c0.1,0,0.1-0.1,0.1-0.1c0,0,0,0,0,0.4c0,1.8-0.9,3.3-1.7,4.2c-0.3,0.3-0.3,0.3-0.3,0.4c0,0.2,0.1,0.3,0.2,0.3
		C316.7,49.2,318.7,47.3,318.7,44.4"/>
	<path class="st86" d="M328,42.4c1.3-1.4,2.1-2.1,3-2.8c0,0,1.5-1.3,2.4-2.2c2.4-2.3,2.9-3.5,2.9-3.6c0-0.2-0.2-0.2-0.3-0.2
		c-0.2,0-0.2,0-0.4,0.3c-0.7,1.2-1.3,1.6-1.9,1.6c-0.6,0-0.9-0.4-1.3-0.8c-0.5-0.6-0.9-1.1-1.7-1.1c-1.9,0-3,2.3-3,2.8
		c0,0.1,0.1,0.3,0.3,0.3c0.2,0,0.3-0.1,0.3-0.3c0.5-1.1,1.9-1.2,2.1-1.2c0.5,0,1,0.2,1.6,0.4c1,0.4,1.3,0.4,1.9,0.4
		c-0.9,1.1-3,2.9-3.5,3.3l-2.2,2.1c-1.7,1.7-2.6,3.1-2.6,3.3c0,0.2,0.2,0.2,0.3,0.2c0.2,0,0.2,0,0.4-0.3c0.6-0.9,1.3-1.5,2.1-1.5
		c0.6,0,0.8,0.2,1.4,0.9c0.4,0.5,0.9,0.9,1.6,0.9c2.5,0,3.9-3.2,3.9-3.8c0-0.1-0.1-0.2-0.3-0.2c-0.2,0-0.3,0.1-0.3,0.3
		c-0.6,1.6-2.2,2.1-3,2.1c-0.5,0-0.9-0.1-1.5-0.3c-0.8-0.3-1.2-0.4-1.7-0.4C328.6,42.3,328.2,42.3,328,42.4"/>
	<path class="st86" d="M343.2,29.5l3.7-5.7l0.8,5.7H343.2z M340.9,32c-0.6,0.9-1.2,1.4-2.2,1.5c-0.2,0-0.4,0-0.4,0.4
		c0,0.2,0.2,0.3,0.2,0.3c0.5,0,1-0.1,1.5-0.1c0.6,0,1.3,0.1,1.8,0.1c0.1,0,0.3,0,0.3-0.4c0-0.2-0.2-0.2-0.3-0.2
		c-0.1,0-0.8-0.1-0.8-0.5c0-0.2,0.2-0.5,0.3-0.7l1.4-2.2h5l0.4,2.9c-0.1,0.2-0.2,0.5-1.2,0.5c-0.2,0-0.5,0-0.5,0.4
		c0,0.1,0.1,0.2,0.3,0.2c0.5,0,1.7-0.1,2.2-0.1c0.3,0,0.7,0,1,0c0.3,0,0.7,0.1,1,0.1c0.2,0,0.3-0.1,0.3-0.4c0-0.3-0.2-0.3-0.5-0.3
		c-1,0-1-0.1-1.1-0.6l-1.5-10.7c-0.1-0.4-0.1-0.5-0.4-0.5c-0.3,0-0.4,0.2-0.6,0.4L340.9,32z"/>
	<path class="st86" d="M337.1,53.4c-0.1,0.3-0.1,0.3-0.1,0.4c0,0.4,0.3,0.6,0.6,0.6c0.6,0,0.8-0.6,0.8-0.9c0-0.1,0.4-1.5,0.8-3.2
		c0.5,0.4,1.2,0.5,1.9,0.5c1.5,0,2.5-1.2,2.5-1.3c0.3,1.2,1.5,1.3,1.8,1.3c0.6,0,1.1-0.4,1.4-0.9c0.4-0.7,0.6-1.7,0.6-1.7
		c0-0.2-0.2-0.2-0.3-0.2c-0.2,0-0.3,0.1-0.4,0.5c-0.2,0.8-0.5,1.9-1.3,1.9c-0.5,0-0.6-0.4-0.6-0.9c0-0.3,0.1-0.9,0.3-1.4
		c0.1-0.5,0.3-1.2,0.4-1.6L346,45c0.1-0.4,0.3-1.2,0.3-1.3c0-0.3-0.3-0.6-0.6-0.6c-0.2,0-0.5,0.1-0.7,0.4c-0.1,0.1-0.2,0.7-0.3,1
		l-0.4,1.4l-0.5,2.2c-0.1,0.4-0.1,0.5-0.3,0.7c-0.5,0.8-1.3,1.4-2.3,1.4c-1.4,0-1.4-1.2-1.4-1.5c0-0.5,0.1-0.7,0.3-1.6
		c0.2-0.8,0.2-0.9,0.4-1.6l0.2-1c0.1-0.4,0.3-1,0.3-1.1c0-0.3-0.2-0.6-0.6-0.6c-0.6,0-0.8,0.6-0.8,0.8L337.1,53.4"/>
	<path class="st86" d="M361.2,38.2c0-3.5-0.6-8.5-3.9-12.8c-0.2-0.3-1.9-2.2-2.3-2.2c-0.1,0-0.3,0-0.3,0.2c0,0.1,0,0.2,0.1,0.2
		c1.2,1.3,2.8,3.3,3.8,7.3c0.6,2.3,0.8,4.8,0.8,7.1c0,2.5-0.2,5.1-0.9,7.5c-0.9,3.5-2.4,5.5-3.7,6.9c-0.2,0.2-0.2,0.3-0.2,0.3
		c0,0.2,0.2,0.2,0.3,0.2c0.4,0,1.7-1.5,2-1.9C359.6,48.2,361.2,43.7,361.2,38.2"/>
</g>
<g>
	<defs>
		<rect id="SVGID_35_" x="260.3" y="441.7" width="101" height="33"/>
	</defs>
	<clipPath id="SVGID_36_">
		<use xlink:href="#SVGID_35_"  style="overflow:visible;"/>
	</clipPath>
	<path class="st87" d="M268.3,453.9h2.1c0.5,0,0.7,0,0.7-0.5c0-0.3-0.2-0.3-0.7-0.3h-2.1l0.5-2.8c0.1-0.5,0.4-2.3,0.6-2.6
		c0.2-0.5,0.6-0.8,1.2-0.8c0.1,0,0.7,0,1.2,0.4c-1.1,0.1-1.3,1-1.3,1.3c0,0.6,0.4,0.9,0.9,0.9c0.6,0,1.4-0.5,1.4-1.5
		c0-1.1-1.1-1.7-2.2-1.7c-0.8,0-2.4,0.4-3.2,2.9c-0.1,0.5-0.2,0.8-0.8,3.9h-1.7c-0.5,0-0.7,0-0.7,0.5c0,0.3,0.2,0.3,0.7,0.3h1.6
		l-1.9,9.8c-0.4,2.4-0.9,4.7-2.2,4.7c-0.1,0-0.7,0-1.2-0.4c1.1-0.1,1.4-1,1.4-1.3c0-0.6-0.4-0.9-0.9-0.9c-0.6,0-1.4,0.5-1.4,1.5
		c0,1.1,1.1,1.7,2.1,1.7c1.4,0,2.4-1.5,2.8-2.4c0.8-1.6,1.4-4.6,1.4-4.8L268.3,453.9"/>
	<path class="st87" d="M288.5,472.3c0-0.1,0-0.1-0.1-0.2c-1.1-1.2-2.8-3.2-3.9-7.3c-0.6-2.3-0.8-4.8-0.8-7.1
		c0-6.6,1.6-11.1,4.6-14.4c0.2-0.2,0.2-0.3,0.2-0.3c0-0.2-0.2-0.2-0.3-0.2c-0.4,0-1.7,1.5-2,1.9c-2.5,3-4.2,7.5-4.2,13.1
		c0,3.5,0.6,8.5,3.9,12.8c0.2,0.3,1.9,2.2,2.3,2.2C288.3,472.5,288.5,472.5,288.5,472.3"/>
	<path class="st87" d="M297.9,456.3c0.1-0.6,0.7-2.9,2.5-2.9c0.1,0,0.7,0,1.2,0.3c-0.7,0.1-1.2,0.7-1.2,1.3c0,0.4,0.3,0.9,0.9,0.9
		c0.5,0,1.3-0.4,1.3-1.4c0-1.3-1.5-1.6-2.3-1.6c-1.4,0-2.3,1.3-2.6,1.9c-0.6-1.6-2-1.9-2.7-1.9c-2.6,0-4,3.2-4,3.8
		c0,0.2,0.2,0.2,0.3,0.2c0.2,0,0.3,0,0.3-0.3c0.8-2.6,2.5-3.3,3.3-3.3c0.5,0,1.3,0.2,1.3,1.7c0,0.8-0.4,2.4-1.3,5.9
		c-0.4,1.5-1.3,2.6-2.4,2.6c-0.1,0-0.7,0-1.2-0.3c0.6-0.1,1.2-0.6,1.2-1.3c0-0.7-0.5-0.9-0.9-0.9c-0.7,0-1.4,0.6-1.4,1.4
		c0,1.1,1.2,1.6,2.3,1.6c1.6,0,2.5-1.7,2.6-1.9c0.3,0.9,1.2,1.9,2.7,1.9c2.6,0,4-3.2,4-3.8c0-0.2-0.2-0.2-0.3-0.2
		c-0.2,0-0.3,0.1-0.3,0.3c-0.8,2.7-2.5,3.3-3.3,3.3c-1,0-1.4-0.8-1.4-1.6c0-0.5,0.1-1.1,0.4-2.2L297.9,456.3"/>
	<path class="st87" d="M305.9,465.5c-0.1,0.2-0.2,0.4-0.2,0.7c0,0.8,0.7,1.5,1.7,1.5c1.7,0,2.5-2.4,2.5-2.7c0-0.2-0.2-0.2-0.3-0.2
		c-0.2,0-0.3,0.1-0.3,0.3c-0.4,1.4-1.2,2.1-1.8,2.1c-0.3,0-0.4-0.2-0.4-0.6c0-0.4,0.1-0.7,0.3-1.1c0.2-0.5,0.4-0.9,0.6-1.4
		c0.2-0.4,0.8-2,0.9-2.2c0.1-0.2,0.1-0.4,0.1-0.6c0-0.8-0.7-1.5-1.7-1.5c-1.7,0-2.5,2.4-2.5,2.7c0,0.2,0.2,0.2,0.3,0.2
		c0.2,0,0.3-0.1,0.3-0.3c0.5-1.5,1.2-2.1,1.9-2.1c0.3,0,0.4,0.1,0.4,0.6c0,0.4-0.1,0.7-0.5,1.7L305.9,465.5 M309.4,456.7
		c0-0.3-0.2-0.7-0.7-0.7c-0.5,0-1,0.5-1,1c0,0.3,0.2,0.7,0.7,0.7C309,457.6,309.4,457.1,309.4,456.7z"/>
	<path class="st87" d="M317.2,463.8c0-1.6-0.6-2.6-1.6-2.6c-0.8,0-1.3,0.6-1.3,1.3c0,0.7,0.5,1.3,1.3,1.3c0.3,0,0.6-0.1,0.9-0.3
		c0.1-0.1,0.1-0.1,0.1-0.1s0,0,0,0.4c0,1.8-0.9,3.3-1.7,4.2c-0.3,0.3-0.3,0.3-0.3,0.4c0,0.2,0.1,0.3,0.2,0.3
		C315.2,468.7,317.2,466.8,317.2,463.8"/>
	<path class="st87" d="M326.5,461.8c1.3-1.4,2.1-2.1,3-2.8c0,0,1.5-1.3,2.4-2.2c2.4-2.3,2.9-3.5,2.9-3.6c0-0.2-0.2-0.2-0.3-0.2
		c-0.2,0-0.2,0-0.4,0.3c-0.7,1.2-1.3,1.6-1.9,1.6c-0.6,0-0.9-0.4-1.3-0.8c-0.5-0.6-0.9-1.1-1.7-1.1c-1.9,0-3,2.3-3,2.8
		c0,0.1,0.1,0.3,0.3,0.3c0.2,0,0.3-0.1,0.3-0.3c0.5-1.1,1.9-1.2,2.1-1.2c0.5,0,1,0.2,1.6,0.4c1,0.4,1.3,0.4,1.9,0.4
		c-0.9,1.1-3,2.9-3.5,3.3l-2.2,2.1c-1.7,1.7-2.6,3.1-2.6,3.3c0,0.2,0.2,0.2,0.3,0.2c0.2,0,0.2-0.1,0.4-0.3c0.6-0.9,1.3-1.5,2.1-1.5
		c0.6,0,0.8,0.2,1.4,0.9c0.4,0.5,0.9,0.9,1.6,0.9c2.5,0,3.9-3.2,3.9-3.8c0-0.1-0.1-0.2-0.3-0.2c-0.2,0-0.3,0.1-0.3,0.3
		c-0.6,1.6-2.2,2.1-3,2.1c-0.5,0-0.9-0.1-1.5-0.3c-0.8-0.3-1.2-0.4-1.7-0.4C327.1,461.7,326.7,461.7,326.5,461.8"/>
	<path class="st87" d="M341.2,452.9c-0.5,0-0.6,0-0.6-0.2c0,0,0-0.1,0.1-0.4l1.2-4.8h3.7c1.6,0,2.3,1.1,2.3,2.1
		c0,1.7-1.8,3.2-3.9,3.2H341.2 M342,447.1l1.1-4.3c0.1-0.5,0.2-0.6,0.9-0.6h2.6c1.8,0,2.2,1.2,2.2,1.8c0,1.4-1.6,3-3.9,3H342z
		 M339.2,452.2c-0.2,0.6-0.2,0.7-1.5,0.7c-0.3,0-0.5,0-0.5,0.4c0,0.3,0.2,0.3,0.5,0.3h6.7c2.9,0,5.2-2,5.2-3.7c0-1.2-1.1-2.3-3-2.5
		c2.1-0.4,3.9-1.7,3.9-3.2c0-1.3-1.3-2.5-3.6-2.5h-6.3c-0.3,0-0.6,0-0.6,0.4c0,0.2,0.2,0.2,0.6,0.2c0,0,0.3,0,0.7,0
		c0.4,0,0.4,0.1,0.4,0.2c0,0,0,0.1-0.1,0.4L339.2,452.2z"/>
	<path class="st87" d="M335.7,472.9c-0.1,0.3-0.1,0.3-0.1,0.4c0,0.4,0.3,0.6,0.6,0.6c0.6,0,0.8-0.6,0.8-0.9c0-0.1,0.4-1.5,0.8-3.2
		c0.5,0.4,1.2,0.5,1.9,0.5c1.5,0,2.5-1.2,2.5-1.3c0.3,1.2,1.5,1.3,1.8,1.3c0.6,0,1.1-0.4,1.4-0.9c0.4-0.7,0.6-1.7,0.6-1.7
		c0-0.2-0.2-0.2-0.3-0.2c-0.2,0-0.3,0.1-0.4,0.5c-0.2,0.8-0.5,1.9-1.3,1.9c-0.5,0-0.6-0.4-0.6-0.9c0-0.3,0.1-0.9,0.3-1.4
		c0.1-0.5,0.3-1.2,0.4-1.6l0.4-1.6c0.1-0.4,0.3-1.2,0.3-1.3c0-0.3-0.3-0.6-0.6-0.6c-0.2,0-0.5,0.1-0.7,0.4c-0.1,0.1-0.2,0.7-0.3,1
		l-0.4,1.4l-0.5,2.2c-0.1,0.4-0.1,0.5-0.3,0.7c-0.5,0.8-1.3,1.4-2.3,1.4c-1.4,0-1.4-1.2-1.4-1.5c0-0.5,0.1-0.7,0.3-1.6
		c0.2-0.8,0.2-0.9,0.4-1.6l0.2-1c0.1-0.4,0.3-1,0.3-1.1c0-0.3-0.2-0.6-0.6-0.6c-0.6,0-0.8,0.6-0.8,0.8L335.7,472.9"/>
	<path class="st87" d="M360.6,457.6c0-3.5-0.6-8.5-3.9-12.8c-0.2-0.3-1.9-2.2-2.3-2.2c-0.1,0-0.3,0-0.3,0.2c0,0.1,0.1,0.2,0.2,0.2
		c1.2,1.3,2.8,3.3,3.8,7.3c0.6,2.3,0.8,4.8,0.8,7.2c0,2.5-0.2,5.1-0.9,7.5c-0.9,3.5-2.4,5.5-3.7,6.9c-0.2,0.2-0.2,0.3-0.2,0.3
		c0,0.2,0.2,0.2,0.3,0.2c0.4,0,1.7-1.5,2-1.9C359,467.7,360.6,463.2,360.6,457.6"/>
</g>
<g>
	<path class="st5" d="M377.3,426.9c10.6,0,18.4-1.8,23.1-5.5c3.8-3,4.6-6.5,4.8-8.4l-5.5,4c-1.7,5.4-15.1,8.6-25.2,8.6h-43.2
		c-6.6,0-12.8,1.6-16.4,4.3l-3.8,2.8l-3.8-2.8c-3.6-2.7-9.7-4.3-16.4-4.3h-43c-10,0-23.5-3.2-25.2-8.6l-5.5-4
		c0.2,1.8,0.9,5.4,4.8,8.4c4.6,3.7,12.3,5.5,23.1,5.5h34.8c1.9,0,14.5-0.2,21.8,3.2c2.3,1,3.9,2.3,4.6,3.8h9.8
		c0.7-1.4,2.3-2.7,4.6-3.8c7.3-3.4,19.9-3.2,21.8-3.2H377.3"/>
</g>
</svg>
